<svg xmlns="http://www.w3.org/2000/svg" viewBox="0 0 1920 1920">
<g transform="translate(0.000000,1920.000000) scale(0.100000,-0.100000)"
fill="#FFFFFF" stroke="none">
<path d="M9230 14163 c-186 -61 -306 -188 -524 -553 -217 -363 -356 -636 -471
-920 -10 -25 -23 -58 -30 -75 -7 -16 -20 -52 -30 -80 -9 -27 -21 -59 -26 -70
-4 -11 -38 -114 -74 -230 -36 -115 -70 -221 -75 -235 -5 -14 -18 -59 -30 -100
-12 -41 -25 -86 -30 -100 -22 -65 -85 -305 -114 -430 -8 -36 -24 -117 -35
-180 -12 -63 -26 -137 -31 -165 -6 -27 -15 -79 -20 -115 -5 -36 -16 -108 -25
-160 -55 -335 -67 -471 -69 -837 l-2 -311 -89 -119 c-49 -65 -92 -120 -95
-123 -4 -3 -109 -141 -233 -307 l-227 -302 0 -633 1 -633 27 -40 c35 -52 108
-89 176 -89 45 -1 183 45 311 104 11 5 76 32 145 60 69 28 139 57 156 65 61
28 160 72 193 86 81 33 664 330 766 389 17 10 53 30 80 45 28 15 79 44 115 65
36 20 129 74 208 120 80 46 149 80 157 76 8 -3 79 -43 157 -90 79 -46 161 -94
183 -106 440 -247 880 -468 1185 -597 58 -24 114 -48 125 -53 11 -5 45 -19 75
-30 30 -11 64 -25 75 -30 11 -5 56 -23 100 -40 44 -18 102 -41 129 -52 87 -35
204 0 255 76 l26 40 3 631 3 631 -49 65 c-26 35 -172 229 -324 431 l-277 366
5 189 c7 227 -18 656 -45 783 -6 25 -31 173 -57 330 -25 157 -50 303 -54 325
-21 105 -55 250 -85 360 -9 33 -20 78 -26 100 -5 22 -14 51 -18 65 -5 14 -19
59 -31 100 -53 181 -165 534 -179 560 -5 9 -12 31 -16 50 -4 19 -11 41 -15 50
-5 8 -32 76 -61 150 -89 229 -248 557 -344 710 -12 19 -25 45 -29 58 -4 12
-12 22 -17 22 -5 0 -9 5 -9 11 0 17 -206 358 -230 379 -3 3 -25 32 -50 65 -97
128 -206 214 -310 245 -66 19 -149 20 -200 3z M8410 7741 c-33 -17 -56 -37
-58 -48 -4 -27 159 -189 250 -249 42 -27 90 -57 107 -66 l31 -17 0 -233 0
-233 29 -60 c27 -58 92 -129 142 -156 18 -9 116 -12 415 -12 l390 0 40 25 c59
38 109 99 134 164 21 56 22 70 18 280 l-4 221 85 51 c47 28 109 70 136 94 69
59 175 175 175 190 0 13 -70 60 -106 72 -15 4 -38 -13 -99 -75 -84 -85 -133
-121 -253 -184 -40 -21 -78 -47 -84 -59 -8 -14 -9 -92 -5 -261 6 -220 5 -243
-12 -281 -10 -22 -31 -50 -46 -62 -27 -22 -34 -22 -366 -22 -216 0 -346 4
-361 11 -13 5 -35 26 -48 46 l-25 37 3 260 4 261 -24 22 c-13 12 -54 38 -91
57 -103 54 -155 93 -238 178 -41 43 -77 78 -80 78 -2 0 -29 -13 -59 -29z
M9260 6474 c-40 -7 -132 -35 -170 -51 -68 -30 -185 -119 -275 -208 -143 -141
-201 -244 -236 -420 -23 -111 -23 -180 -4 -281 30 -154 67 -250 136 -351 68
-101 212 -218 282 -230 30 -5 40 -1 63 23 25 28 26 33 21 103 -6 80 3 111 32
111 55 0 52 -106 -9 -275 -32 -87 -36 -191 -11 -295 48 -207 60 -231 131 -267
49 -26 93 -29 129 -10 23 12 49 76 65 161 15 78 95 175 283 341 44 39 113 112
154 163 78 98 184 265 195 307 3 14 10 27 14 30 4 3 16 57 26 121 17 110 17
122 1 230 -13 90 -25 130 -56 196 -125 260 -341 482 -551 568 -63 26 -168 42
-220 34z m204 -198 c169 -86 344 -285 443 -503 24 -54 26 -69 27 -198 1 -160
-6 -188 -82 -315 -75 -125 -147 -214 -253 -312 -180 -166 -196 -182 -252 -260
-30 -43 -61 -95 -68 -115 l-12 -38 -14 40 c-20 53 -28 201 -15 245 6 19 21 62
32 95 14 39 24 96 27 162 5 91 4 106 -16 143 -26 51 -43 68 -87 92 -41 22
-124 24 -163 4 -37 -20 -99 -89 -107 -121 -3 -14 -10 -25 -14 -25 -16 0 -101
119 -126 176 -36 82 -64 214 -64 303 0 94 30 216 72 291 60 107 208 252 334
326 110 65 223 68 338 10z"/>
</g>
</svg>
